<mxfile host="app.diagrams.net" modified="2022-01-20T06:56:39.175Z" agent="5.0 (Windows NT 10.0; Win64; x64) AppleWebKit/537.36 (KHTML, like Gecko) Chrome/97.0.4692.71 Safari/537.36 Edg/97.0.1072.62" etag="X_mqv2ojymeEzPzSKy0h" version="16.4.2" type="github">
  <diagram id="Zt9k7BxC1D5U0BpOp6I2" name="Page-1">
    <mxGraphModel dx="1422" dy="762" grid="1" gridSize="10" guides="1" tooltips="1" connect="1" arrows="1" fold="1" page="1" pageScale="1" pageWidth="827" pageHeight="1169" math="0" shadow="0">
      <root>
        <mxCell id="0" />
        <mxCell id="1" parent="0" />
        <mxCell id="98o1m-MZozW1Fuy_9C4y-5" value="" style="edgeStyle=orthogonalEdgeStyle;rounded=0;orthogonalLoop=1;jettySize=auto;html=1;" parent="1" source="98o1m-MZozW1Fuy_9C4y-1" target="98o1m-MZozW1Fuy_9C4y-4" edge="1">
          <mxGeometry relative="1" as="geometry" />
        </mxCell>
        <mxCell id="98o1m-MZozW1Fuy_9C4y-1" value="Запусти навык&amp;nbsp; &quot;Голосовой помощник SolidWorks&quot;" style="rounded=0;whiteSpace=wrap;html=1;" parent="1" vertex="1">
          <mxGeometry x="354" y="20" width="120" height="60" as="geometry" />
        </mxCell>
        <mxCell id="98o1m-MZozW1Fuy_9C4y-2" value="User:" style="text;strokeColor=none;fillColor=none;html=1;fontSize=24;fontStyle=1;verticalAlign=middle;align=center;" parent="1" vertex="1">
          <mxGeometry x="254" y="30" width="100" height="40" as="geometry" />
        </mxCell>
        <mxCell id="98o1m-MZozW1Fuy_9C4y-9" value="" style="edgeStyle=orthogonalEdgeStyle;rounded=0;orthogonalLoop=1;jettySize=auto;html=1;" parent="1" source="98o1m-MZozW1Fuy_9C4y-4" target="98o1m-MZozW1Fuy_9C4y-8" edge="1">
          <mxGeometry relative="1" as="geometry" />
        </mxCell>
        <mxCell id="98o1m-MZozW1Fuy_9C4y-11" value="" style="edgeStyle=orthogonalEdgeStyle;rounded=0;orthogonalLoop=1;jettySize=auto;html=1;" parent="1" source="98o1m-MZozW1Fuy_9C4y-4" target="98o1m-MZozW1Fuy_9C4y-10" edge="1">
          <mxGeometry relative="1" as="geometry" />
        </mxCell>
        <mxCell id="98o1m-MZozW1Fuy_9C4y-4" value="Solidworks&lt;br&gt;запущен?" style="rhombus;whiteSpace=wrap;html=1;" parent="1" vertex="1">
          <mxGeometry x="366" y="140" width="96" height="90" as="geometry" />
        </mxCell>
        <mxCell id="98o1m-MZozW1Fuy_9C4y-8" value="Навык готов к работе" style="whiteSpace=wrap;html=1;" parent="1" vertex="1">
          <mxGeometry x="354" y="320" width="120" height="60" as="geometry" />
        </mxCell>
        <mxCell id="VIojnKPpUzhAX4WAjxbH-3" value="" style="edgeStyle=orthogonalEdgeStyle;rounded=0;orthogonalLoop=1;jettySize=auto;html=1;entryX=1;entryY=0.5;entryDx=0;entryDy=0;" edge="1" parent="1" source="98o1m-MZozW1Fuy_9C4y-10" target="98o1m-MZozW1Fuy_9C4y-8">
          <mxGeometry relative="1" as="geometry">
            <mxPoint x="640" y="540" as="targetPoint" />
            <Array as="points">
              <mxPoint x="690" y="350" />
            </Array>
          </mxGeometry>
        </mxCell>
        <mxCell id="98o1m-MZozW1Fuy_9C4y-10" value="Запустить программу SolidWorks" style="whiteSpace=wrap;html=1;" parent="1" vertex="1">
          <mxGeometry x="630" y="155" width="120" height="60" as="geometry" />
        </mxCell>
        <mxCell id="98o1m-MZozW1Fuy_9C4y-13" value="Да" style="text;strokeColor=none;fillColor=none;html=1;fontSize=24;fontStyle=1;verticalAlign=middle;align=center;" parent="1" vertex="1">
          <mxGeometry x="330" y="240" width="100" height="40" as="geometry" />
        </mxCell>
        <mxCell id="98o1m-MZozW1Fuy_9C4y-14" value="Нет" style="text;strokeColor=none;fillColor=none;html=1;fontSize=24;fontStyle=1;verticalAlign=middle;align=center;" parent="1" vertex="1">
          <mxGeometry x="500" y="150" width="100" height="40" as="geometry" />
        </mxCell>
        <mxCell id="VIojnKPpUzhAX4WAjxbH-4" value="Голосовой помощник" style="whiteSpace=wrap;html=1;aspect=fixed;" vertex="1" parent="1">
          <mxGeometry x="370" y="700" width="80" height="80" as="geometry" />
        </mxCell>
        <mxCell id="VIojnKPpUzhAX4WAjxbH-5" value="User" style="whiteSpace=wrap;html=1;aspect=fixed;" vertex="1" parent="1">
          <mxGeometry x="94" y="700" width="80" height="80" as="geometry" />
        </mxCell>
        <mxCell id="VIojnKPpUzhAX4WAjxbH-6" value="SolidWorks" style="whiteSpace=wrap;html=1;aspect=fixed;" vertex="1" parent="1">
          <mxGeometry x="650" y="700" width="80" height="80" as="geometry" />
        </mxCell>
        <mxCell id="VIojnKPpUzhAX4WAjxbH-7" value="" style="endArrow=none;dashed=1;html=1;dashPattern=1 3;strokeWidth=2;rounded=0;" edge="1" parent="1">
          <mxGeometry width="50" height="50" relative="1" as="geometry">
            <mxPoint x="610" y="830" as="sourcePoint" />
            <mxPoint x="610" y="650" as="targetPoint" />
          </mxGeometry>
        </mxCell>
        <mxCell id="VIojnKPpUzhAX4WAjxbH-8" value="" style="endArrow=none;dashed=1;html=1;dashPattern=1 3;strokeWidth=2;rounded=0;" edge="1" parent="1">
          <mxGeometry width="50" height="50" relative="1" as="geometry">
            <mxPoint x="780" y="830" as="sourcePoint" />
            <mxPoint x="780" y="650" as="targetPoint" />
          </mxGeometry>
        </mxCell>
        <mxCell id="VIojnKPpUzhAX4WAjxbH-9" value="" style="endArrow=none;dashed=1;html=1;dashPattern=1 3;strokeWidth=2;rounded=0;" edge="1" parent="1">
          <mxGeometry width="50" height="50" relative="1" as="geometry">
            <mxPoint x="780" y="830" as="sourcePoint" />
            <mxPoint x="610" y="830" as="targetPoint" />
          </mxGeometry>
        </mxCell>
        <mxCell id="VIojnKPpUzhAX4WAjxbH-10" value="" style="endArrow=none;dashed=1;html=1;dashPattern=1 3;strokeWidth=2;rounded=0;" edge="1" parent="1">
          <mxGeometry width="50" height="50" relative="1" as="geometry">
            <mxPoint x="780" y="650" as="sourcePoint" />
            <mxPoint x="610" y="650" as="targetPoint" />
          </mxGeometry>
        </mxCell>
        <mxCell id="VIojnKPpUzhAX4WAjxbH-11" value="" style="endArrow=none;dashed=1;html=1;dashPattern=1 3;strokeWidth=2;rounded=0;" edge="1" parent="1">
          <mxGeometry width="50" height="50" relative="1" as="geometry">
            <mxPoint x="330" y="829.5" as="sourcePoint" />
            <mxPoint x="330" y="649.5" as="targetPoint" />
          </mxGeometry>
        </mxCell>
        <mxCell id="VIojnKPpUzhAX4WAjxbH-12" value="" style="endArrow=none;dashed=1;html=1;dashPattern=1 3;strokeWidth=2;rounded=0;" edge="1" parent="1">
          <mxGeometry width="50" height="50" relative="1" as="geometry">
            <mxPoint x="500" y="829.5" as="sourcePoint" />
            <mxPoint x="500" y="649.5" as="targetPoint" />
          </mxGeometry>
        </mxCell>
        <mxCell id="VIojnKPpUzhAX4WAjxbH-13" value="" style="endArrow=none;dashed=1;html=1;dashPattern=1 3;strokeWidth=2;rounded=0;" edge="1" parent="1">
          <mxGeometry width="50" height="50" relative="1" as="geometry">
            <mxPoint x="500" y="829.5" as="sourcePoint" />
            <mxPoint x="330" y="829.5" as="targetPoint" />
          </mxGeometry>
        </mxCell>
        <mxCell id="VIojnKPpUzhAX4WAjxbH-14" value="" style="endArrow=none;dashed=1;html=1;dashPattern=1 3;strokeWidth=2;rounded=0;" edge="1" parent="1">
          <mxGeometry width="50" height="50" relative="1" as="geometry">
            <mxPoint x="500" y="649.5" as="sourcePoint" />
            <mxPoint x="330" y="649.5" as="targetPoint" />
          </mxGeometry>
        </mxCell>
        <mxCell id="VIojnKPpUzhAX4WAjxbH-15" value="" style="endArrow=none;dashed=1;html=1;dashPattern=1 3;strokeWidth=2;rounded=0;" edge="1" parent="1">
          <mxGeometry width="50" height="50" relative="1" as="geometry">
            <mxPoint x="50" y="829.5" as="sourcePoint" />
            <mxPoint x="50" y="649.5" as="targetPoint" />
          </mxGeometry>
        </mxCell>
        <mxCell id="VIojnKPpUzhAX4WAjxbH-16" value="" style="endArrow=none;dashed=1;html=1;dashPattern=1 3;strokeWidth=2;rounded=0;" edge="1" parent="1">
          <mxGeometry width="50" height="50" relative="1" as="geometry">
            <mxPoint x="220" y="829.5" as="sourcePoint" />
            <mxPoint x="220" y="649.5" as="targetPoint" />
          </mxGeometry>
        </mxCell>
        <mxCell id="VIojnKPpUzhAX4WAjxbH-17" value="" style="endArrow=none;dashed=1;html=1;dashPattern=1 3;strokeWidth=2;rounded=0;" edge="1" parent="1">
          <mxGeometry width="50" height="50" relative="1" as="geometry">
            <mxPoint x="220" y="829.5" as="sourcePoint" />
            <mxPoint x="50" y="829.5" as="targetPoint" />
          </mxGeometry>
        </mxCell>
        <mxCell id="VIojnKPpUzhAX4WAjxbH-18" value="" style="endArrow=none;dashed=1;html=1;dashPattern=1 3;strokeWidth=2;rounded=0;" edge="1" parent="1">
          <mxGeometry width="50" height="50" relative="1" as="geometry">
            <mxPoint x="220" y="649.5" as="sourcePoint" />
            <mxPoint x="50" y="649.5" as="targetPoint" />
          </mxGeometry>
        </mxCell>
        <mxCell id="VIojnKPpUzhAX4WAjxbH-19" value="SolidWorks API" style="text;html=1;strokeColor=none;fillColor=none;align=center;verticalAlign=middle;whiteSpace=wrap;rounded=0;" vertex="1" parent="1">
          <mxGeometry x="690" y="650" width="90" height="30" as="geometry" />
        </mxCell>
        <mxCell id="VIojnKPpUzhAX4WAjxbH-20" value="Windows DLL" style="text;html=1;strokeColor=none;fillColor=none;align=center;verticalAlign=middle;whiteSpace=wrap;rounded=0;" vertex="1" parent="1">
          <mxGeometry x="420" y="650" width="80" height="30" as="geometry" />
        </mxCell>
        <mxCell id="VIojnKPpUzhAX4WAjxbH-21" value="" style="endArrow=classic;html=1;rounded=0;entryX=0;entryY=0.25;entryDx=0;entryDy=0;" edge="1" parent="1" target="VIojnKPpUzhAX4WAjxbH-4">
          <mxGeometry width="50" height="50" relative="1" as="geometry">
            <mxPoint x="174" y="720" as="sourcePoint" />
            <mxPoint x="264" y="720" as="targetPoint" />
          </mxGeometry>
        </mxCell>
        <mxCell id="VIojnKPpUzhAX4WAjxbH-23" value="" style="endArrow=classic;html=1;rounded=0;entryX=1;entryY=0.75;entryDx=0;entryDy=0;" edge="1" parent="1" target="VIojnKPpUzhAX4WAjxbH-5">
          <mxGeometry width="50" height="50" relative="1" as="geometry">
            <mxPoint x="370" y="760" as="sourcePoint" />
            <mxPoint x="250" y="700" as="targetPoint" />
          </mxGeometry>
        </mxCell>
        <mxCell id="VIojnKPpUzhAX4WAjxbH-24" value="" style="endArrow=classic;html=1;rounded=0;entryX=1;entryY=0.75;entryDx=0;entryDy=0;" edge="1" parent="1" target="VIojnKPpUzhAX4WAjxbH-4">
          <mxGeometry width="50" height="50" relative="1" as="geometry">
            <mxPoint x="650" y="760" as="sourcePoint" />
            <mxPoint x="700" y="710" as="targetPoint" />
          </mxGeometry>
        </mxCell>
        <mxCell id="VIojnKPpUzhAX4WAjxbH-25" value="" style="endArrow=classic;html=1;rounded=0;entryX=0;entryY=0.25;entryDx=0;entryDy=0;" edge="1" parent="1" target="VIojnKPpUzhAX4WAjxbH-6">
          <mxGeometry width="50" height="50" relative="1" as="geometry">
            <mxPoint x="450" y="720" as="sourcePoint" />
            <mxPoint x="500" y="670" as="targetPoint" />
          </mxGeometry>
        </mxCell>
        <mxCell id="VIojnKPpUzhAX4WAjxbH-26" value="Request" style="text;html=1;strokeColor=none;fillColor=none;align=center;verticalAlign=middle;whiteSpace=wrap;rounded=0;" vertex="1" parent="1">
          <mxGeometry x="240" y="690" width="60" height="30" as="geometry" />
        </mxCell>
        <mxCell id="VIojnKPpUzhAX4WAjxbH-27" value="Request" style="text;html=1;strokeColor=none;fillColor=none;align=center;verticalAlign=middle;whiteSpace=wrap;rounded=0;" vertex="1" parent="1">
          <mxGeometry x="530" y="690" width="60" height="30" as="geometry" />
        </mxCell>
        <mxCell id="VIojnKPpUzhAX4WAjxbH-28" value="Response" style="text;html=1;strokeColor=none;fillColor=none;align=center;verticalAlign=middle;whiteSpace=wrap;rounded=0;" vertex="1" parent="1">
          <mxGeometry x="240" y="761" width="60" height="30" as="geometry" />
        </mxCell>
        <mxCell id="VIojnKPpUzhAX4WAjxbH-30" value="Response" style="text;html=1;strokeColor=none;fillColor=none;align=center;verticalAlign=middle;whiteSpace=wrap;rounded=0;" vertex="1" parent="1">
          <mxGeometry x="530" y="761" width="60" height="30" as="geometry" />
        </mxCell>
      </root>
    </mxGraphModel>
  </diagram>
</mxfile>
